<svg width="16" height="16" viewBox="0 0 16 16" fill="none" xmlns="http://www.w3.org/2000/svg">
<g clip-path="url(#clip0_385_1314)">
<g clip-path="url(#clip1_385_1314)">
<path d="M15.5807 2.79064L13.2092 0.419107C12.6505 -0.139657 11.7461 -0.139748 11.1872 0.419107C10.7895 0.81692 2.04501 9.56142 1.87823 9.72814C1.81232 9.79405 1.76571 9.8767 1.7435 9.96724L0.548372 14.8343C0.456659 15.208 0.795657 15.5424 1.16556 15.4516C1.41813 15.3895 5.80912 14.3113 6.03263 14.2564C6.12314 14.2342 6.20585 14.1876 6.27173 14.1217C6.44742 13.946 15.1432 5.25017 15.5808 4.81264C16.1395 4.25387 16.1396 3.34947 15.5807 2.79064ZM1.74024 14.2596L1.78894 14.0614L1.9385 14.211L1.74024 14.2596ZM3.09711 13.9265L2.07344 12.9028L2.51859 11.09L4.90988 13.4813L3.09711 13.9265ZM5.91095 13.0393L2.96057 10.0889L10.5793 2.47022L13.5296 5.42061L5.91095 13.0393ZM14.8592 4.09108L14.2699 4.68035L11.3195 1.72997L11.9088 1.14069C12.0687 0.9808 12.3277 0.980649 12.4877 1.14069L14.8592 3.51226C15.0192 3.67221 15.0192 3.93107 14.8592 4.09108Z" fill="#0E0E10"/>
</g>
</g>
<defs>
<clipPath id="clip0_385_1314">
<rect width="16" height="16" fill="white"/>
</clipPath>
<clipPath id="clip1_385_1314">
<rect width="15.4667" height="15.4667" fill="white" transform="translate(0.533447)"/>
</clipPath>
</defs>
</svg>
